<svg width="176" height="48" viewBox="0 0 176 48" fill="none" xmlns="http://www.w3.org/2000/svg">
<rect width="48" height="48" rx="24" fill="#333D4C" fill-opacity="0.7"/>
<path fill-rule="evenodd" clip-rule="evenodd" d="M29.714 18.286C29.9703 18.5422 29.9703 18.9578 29.714 19.214L19.214 29.714C18.9578 29.9703 18.5422 29.9703 18.286 29.714C18.0297 29.4578 18.0297 29.0422 18.286 28.786L28.786 18.286C29.0422 18.0297 29.4578 18.0297 29.714 18.286Z" fill="#F55266"/>
<path fill-rule="evenodd" clip-rule="evenodd" d="M19.875 18.6562C19.2019 18.6562 18.6562 19.2019 18.6562 19.875C18.6562 20.5481 19.2019 21.0938 19.875 21.0938C20.5481 21.0938 21.0938 20.5481 21.0938 19.875C21.0938 19.2019 20.5481 18.6562 19.875 18.6562ZM17.3438 19.875C17.3438 18.477 18.477 17.3438 19.875 17.3438C21.273 17.3438 22.4062 18.477 22.4062 19.875C22.4062 21.273 21.273 22.4062 19.875 22.4062C18.477 22.4062 17.3438 21.273 17.3438 19.875Z" fill="#F55266"/>
<path fill-rule="evenodd" clip-rule="evenodd" d="M28.125 26.9062C27.4519 26.9062 26.9062 27.4519 26.9062 28.125C26.9062 28.7981 27.4519 29.3438 28.125 29.3438C28.7981 29.3438 29.3438 28.7981 29.3438 28.125C29.3438 27.4519 28.7981 26.9062 28.125 26.9062ZM25.5938 28.125C25.5938 26.727 26.727 25.5938 28.125 25.5938C29.523 25.5938 30.6562 26.727 30.6562 28.125C30.6562 29.523 29.523 30.6562 28.125 30.6562C26.727 30.6562 25.5938 29.523 25.5938 28.125Z" fill="#F55266"/>
<path d="M64.4205 10.6364C64.4205 11.5568 64.2543 12.3523 63.9219 13.0227C63.5895 13.6932 63.1335 14.2102 62.554 14.5739C61.9744 14.9375 61.3125 15.1193 60.5682 15.1193C59.8239 15.1193 59.1619 14.9375 58.5824 14.5739C58.0028 14.2102 57.5469 13.6932 57.2145 13.0227C56.8821 12.3523 56.7159 11.5568 56.7159 10.6364C56.7159 9.71591 56.8821 8.92045 57.2145 8.25C57.5469 7.57955 58.0028 7.0625 58.5824 6.69886C59.1619 6.33523 59.8239 6.15341 60.5682 6.15341C61.3125 6.15341 61.9744 6.33523 62.554 6.69886C63.1335 7.0625 63.5895 7.57955 63.9219 8.25C64.2543 8.92045 64.4205 9.71591 64.4205 10.6364ZM63.3977 10.6364C63.3977 9.88068 63.2713 9.2429 63.0185 8.72301C62.7685 8.20312 62.429 7.80966 62 7.54261C61.5739 7.27557 61.0966 7.14205 60.5682 7.14205C60.0398 7.14205 59.5611 7.27557 59.1321 7.54261C58.706 7.80966 58.3665 8.20312 58.1136 8.72301C57.8636 9.2429 57.7386 9.88068 57.7386 10.6364C57.7386 11.392 57.8636 12.0298 58.1136 12.5497C58.3665 13.0696 58.706 13.4631 59.1321 13.7301C59.5611 13.9972 60.0398 14.1307 60.5682 14.1307C61.0966 14.1307 61.5739 13.9972 62 13.7301C62.429 13.4631 62.7685 13.0696 63.0185 12.5497C63.2713 12.0298 63.3977 11.392 63.3977 10.6364ZM67.0668 11.0625V15H66.0611V8.45455H67.0327V9.47727H67.1179C67.2713 9.14489 67.5043 8.87784 67.8168 8.67614C68.1293 8.47159 68.5327 8.36932 69.027 8.36932C69.4702 8.36932 69.858 8.46023 70.1903 8.64205C70.5227 8.82102 70.7813 9.09375 70.9659 9.46023C71.1506 9.82386 71.2429 10.2841 71.2429 10.8409V15H70.2372V10.9091C70.2372 10.3949 70.1037 9.99432 69.8366 9.70739C69.5696 9.41761 69.2031 9.27273 68.7372 9.27273C68.4162 9.27273 68.1293 9.34233 67.8764 9.48153C67.6264 9.62074 67.429 9.82386 67.2841 10.0909C67.1392 10.358 67.0668 10.6818 67.0668 11.0625ZM74.0863 6.27273V15H73.0806V6.27273H74.0863ZM76.576 17.4545C76.4055 17.4545 76.2536 17.4403 76.12 17.4119C75.9865 17.3864 75.8942 17.3608 75.843 17.3352L76.0987 16.4489C76.343 16.5114 76.5589 16.5341 76.7464 16.517C76.9339 16.5 77.1001 16.4162 77.245 16.2656C77.3928 16.1179 77.5277 15.8778 77.6499 15.5455L77.8374 15.0341L75.4169 8.45455H76.5078L78.3146 13.6705H78.3828L80.1896 8.45455H81.2805L78.5021 15.9545C78.3771 16.2926 78.2223 16.5724 78.0376 16.794C77.853 17.0185 77.6385 17.1847 77.3942 17.2926C77.1527 17.4006 76.88 17.4545 76.576 17.4545ZM88.8295 8.45455V9.30682H85.4375V8.45455H88.8295ZM86.4261 6.88636H87.4318V13.125C87.4318 13.4091 87.473 13.6222 87.5554 13.7642C87.6406 13.9034 87.7486 13.9972 87.8793 14.0455C88.0128 14.0909 88.1534 14.1136 88.3011 14.1136C88.4119 14.1136 88.5028 14.108 88.5739 14.0966C88.6449 14.0824 88.7017 14.071 88.7443 14.0625L88.9489 14.9659C88.8807 14.9915 88.7855 15.017 88.6634 15.0426C88.5412 15.071 88.3864 15.0852 88.1989 15.0852C87.9148 15.0852 87.6364 15.0241 87.3636 14.902C87.0938 14.7798 86.8693 14.5938 86.6903 14.3438C86.5142 14.0938 86.4261 13.7784 86.4261 13.3977V6.88636ZM91.4886 11.0625V15H90.483V6.27273H91.4886V9.47727H91.5739C91.7273 9.1392 91.9574 8.87074 92.2642 8.67188C92.5739 8.47017 92.9858 8.36932 93.5 8.36932C93.946 8.36932 94.3366 8.45881 94.6719 8.63778C95.0071 8.81392 95.267 9.08523 95.4517 9.4517C95.6392 9.81534 95.733 10.2784 95.733 10.8409V15H94.7273V10.9091C94.7273 10.3892 94.5923 9.98722 94.3224 9.70312C94.0554 9.41619 93.6847 9.27273 93.2102 9.27273C92.8807 9.27273 92.5852 9.34233 92.3239 9.48153C92.0653 9.62074 91.8608 9.82386 91.7102 10.0909C91.5625 10.358 91.4886 10.6818 91.4886 11.0625ZM97.5728 15V8.45455H98.5785V15H97.5728ZM98.0842 7.36364C97.8881 7.36364 97.7191 7.29688 97.5771 7.16335C97.4379 7.02983 97.3683 6.86932 97.3683 6.68182C97.3683 6.49432 97.4379 6.33381 97.5771 6.20028C97.7191 6.06676 97.8881 6 98.0842 6C98.2802 6 98.4478 6.06676 98.587 6.20028C98.729 6.33381 98.8001 6.49432 98.8001 6.68182C98.8001 6.86932 98.729 7.02983 98.587 7.16335C98.4478 7.29688 98.2802 7.36364 98.0842 7.36364ZM105.057 9.92045L104.153 10.1761C104.097 10.0256 104.013 9.87926 103.902 9.73722C103.794 9.59233 103.646 9.47301 103.459 9.37926C103.271 9.28551 103.031 9.23864 102.739 9.23864C102.338 9.23864 102.004 9.33097 101.737 9.51562C101.473 9.69744 101.341 9.92898 101.341 10.2102C101.341 10.4602 101.432 10.6577 101.614 10.8026C101.795 10.9474 102.08 11.0682 102.466 11.1648L103.438 11.4034C104.023 11.5455 104.459 11.7628 104.746 12.0554C105.033 12.3452 105.176 12.7187 105.176 13.1761C105.176 13.5511 105.068 13.8864 104.852 14.1818C104.639 14.4773 104.341 14.7102 103.957 14.8807C103.574 15.0511 103.128 15.1364 102.619 15.1364C101.952 15.1364 101.399 14.9915 100.962 14.7017C100.524 14.4119 100.247 13.9886 100.131 13.4318L101.085 13.1932C101.176 13.5455 101.348 13.8097 101.601 13.9858C101.857 14.1619 102.19 14.25 102.602 14.25C103.071 14.25 103.443 14.1506 103.719 13.9517C103.997 13.75 104.136 13.5085 104.136 13.2273C104.136 13 104.057 12.8097 103.898 12.6562C103.739 12.5 103.494 12.3835 103.165 12.3068L102.074 12.0511C101.474 11.9091 101.034 11.6889 100.753 11.3906C100.474 11.0895 100.335 10.7131 100.335 10.2614C100.335 9.89205 100.439 9.56534 100.646 9.28125C100.857 8.99716 101.142 8.77415 101.503 8.61222C101.866 8.45028 102.278 8.36932 102.739 8.36932C103.386 8.36932 103.895 8.51136 104.264 8.79545C104.636 9.07955 104.901 9.45455 105.057 9.92045ZM110.065 15V8.45455H111.037V9.47727H111.122C111.258 9.12784 111.478 8.85653 111.782 8.66335C112.086 8.46733 112.451 8.36932 112.877 8.36932C113.309 8.36932 113.669 8.46733 113.956 8.66335C114.245 8.85653 114.471 9.12784 114.633 9.47727H114.701C114.869 9.1392 115.12 8.87074 115.456 8.67188C115.791 8.47017 116.193 8.36932 116.662 8.36932C117.247 8.36932 117.725 8.55256 118.098 8.91903C118.47 9.28267 118.656 9.84943 118.656 10.6193V15H117.65V10.6193C117.65 10.1364 117.518 9.79119 117.254 9.58381C116.99 9.37642 116.679 9.27273 116.321 9.27273C115.86 9.27273 115.504 9.41193 115.251 9.69034C114.998 9.96591 114.872 10.3153 114.872 10.7386V15H113.849V10.517C113.849 10.1449 113.728 9.84517 113.487 9.6179C113.245 9.38778 112.934 9.27273 112.554 9.27273C112.292 9.27273 112.048 9.34233 111.821 9.48153C111.596 9.62074 111.414 9.81392 111.275 10.0611C111.139 10.3054 111.071 10.5881 111.071 10.9091V15H110.065ZM123.154 15.1364C122.563 15.1364 122.044 14.9957 121.598 14.7145C121.155 14.4332 120.809 14.0398 120.559 13.5341C120.311 13.0284 120.188 12.4375 120.188 11.7614C120.188 11.0795 120.311 10.4844 120.559 9.97585C120.809 9.46733 121.155 9.07244 121.598 8.79119C122.044 8.50994 122.563 8.36932 123.154 8.36932C123.745 8.36932 124.262 8.50994 124.705 8.79119C125.151 9.07244 125.498 9.46733 125.745 9.97585C125.995 10.4844 126.12 11.0795 126.12 11.7614C126.12 12.4375 125.995 13.0284 125.745 13.5341C125.498 14.0398 125.151 14.4332 124.705 14.7145C124.262 14.9957 123.745 15.1364 123.154 15.1364ZM123.154 14.233C123.603 14.233 123.972 14.1179 124.262 13.8878C124.551 13.6577 124.766 13.3551 124.905 12.9801C125.044 12.6051 125.114 12.1989 125.114 11.7614C125.114 11.3239 125.044 10.9162 124.905 10.5384C124.766 10.1605 124.551 9.85511 124.262 9.62216C123.972 9.3892 123.603 9.27273 123.154 9.27273C122.705 9.27273 122.336 9.3892 122.046 9.62216C121.756 9.85511 121.542 10.1605 121.402 10.5384C121.263 10.9162 121.194 11.3239 121.194 11.7614C121.194 12.1989 121.263 12.6051 121.402 12.9801C121.542 13.3551 121.756 13.6577 122.046 13.8878C122.336 14.1179 122.705 14.233 123.154 14.233ZM128.661 11.0625V15H127.655V8.45455H128.626V9.47727H128.712C128.865 9.14489 129.098 8.87784 129.411 8.67614C129.723 8.47159 130.126 8.36932 130.621 8.36932C131.064 8.36932 131.452 8.46023 131.784 8.64205C132.116 8.82102 132.375 9.09375 132.56 9.46023C132.744 9.82386 132.837 10.2841 132.837 10.8409V15H131.831V10.9091C131.831 10.3949 131.697 9.99432 131.43 9.70739C131.163 9.41761 130.797 9.27273 130.331 9.27273C130.01 9.27273 129.723 9.34233 129.47 9.48153C129.22 9.62074 129.023 9.82386 128.878 10.0909C128.733 10.358 128.661 10.6818 128.661 11.0625ZM137.521 8.45455V9.30682H134.129V8.45455H137.521ZM135.118 6.88636H136.123V13.125C136.123 13.4091 136.164 13.6222 136.247 13.7642C136.332 13.9034 136.44 13.9972 136.571 14.0455C136.704 14.0909 136.845 14.1136 136.993 14.1136C137.103 14.1136 137.194 14.108 137.265 14.0966C137.336 14.0824 137.393 14.071 137.436 14.0625L137.64 14.9659C137.572 14.9915 137.477 15.017 137.355 15.0426C137.233 15.071 137.078 15.0852 136.89 15.0852C136.606 15.0852 136.328 15.0241 136.055 14.902C135.785 14.7798 135.561 14.5938 135.382 14.3438C135.206 14.0938 135.118 13.7784 135.118 13.3977V6.88636ZM140.18 11.0625V15H139.174V6.27273H140.18V9.47727H140.265C140.419 9.1392 140.649 8.87074 140.956 8.67188C141.265 8.47017 141.677 8.36932 142.191 8.36932C142.637 8.36932 143.028 8.45881 143.363 8.63778C143.699 8.81392 143.958 9.08523 144.143 9.4517C144.331 9.81534 144.424 10.2784 144.424 10.8409V15H143.419V10.9091C143.419 10.3892 143.284 9.98722 143.014 9.70312C142.747 9.41619 142.376 9.27273 141.902 9.27273C141.572 9.27273 141.277 9.34233 141.015 9.48153C140.757 9.62074 140.552 9.82386 140.402 10.0909C140.254 10.358 140.18 10.6818 140.18 11.0625Z" fill="#CAD0D9"/>
<path d="M63.625 31.4205C63.5644 30.8826 63.3144 30.4659 62.875 30.1705C62.4356 29.8712 61.8826 29.7216 61.2159 29.7216C60.7386 29.7216 60.3258 29.7973 59.9773 29.9489C59.6288 30.0966 59.358 30.3011 59.1648 30.5625C58.9754 30.8201 58.8807 31.1136 58.8807 31.4432C58.8807 31.7197 58.9451 31.9583 59.0739 32.1591C59.2064 32.3598 59.3788 32.5284 59.5909 32.6648C59.8068 32.7973 60.0379 32.9091 60.2841 33C60.5303 33.0871 60.767 33.1591 60.9943 33.2159L62.1307 33.5114C62.5019 33.6023 62.8826 33.7254 63.2727 33.8807C63.6629 34.036 64.0246 34.2405 64.358 34.4943C64.6913 34.7481 64.9602 35.0625 65.1648 35.4375C65.3731 35.8125 65.4773 36.2614 65.4773 36.7841C65.4773 37.4432 65.3068 38.0284 64.9659 38.5398C64.6288 39.0511 64.1383 39.4545 63.4943 39.75C62.8542 40.0455 62.0795 40.1932 61.1705 40.1932C60.2992 40.1932 59.5455 40.0549 58.9091 39.7784C58.2727 39.5019 57.7746 39.1098 57.4148 38.6023C57.0549 38.0909 56.8561 37.4848 56.8182 36.7841H58.5795C58.6136 37.2045 58.75 37.5549 58.9886 37.8352C59.2311 38.1117 59.5398 38.3182 59.9148 38.4545C60.2936 38.5871 60.7083 38.6534 61.1591 38.6534C61.6553 38.6534 62.0966 38.5758 62.483 38.4205C62.8731 38.2614 63.1799 38.0417 63.4034 37.7614C63.6269 37.4773 63.7386 37.1458 63.7386 36.767C63.7386 36.4223 63.6402 36.1402 63.4432 35.9205C63.25 35.7008 62.9867 35.5189 62.6534 35.375C62.3239 35.2311 61.9508 35.1042 61.5341 34.9943L60.1591 34.6193C59.2273 34.3655 58.4886 33.9924 57.9432 33.5C57.4015 33.0076 57.1307 32.3561 57.1307 31.5455C57.1307 30.875 57.3125 30.2898 57.6761 29.7898C58.0398 29.2898 58.5322 28.9015 59.1534 28.625C59.7746 28.3447 60.4754 28.2045 61.2557 28.2045C62.0436 28.2045 62.7386 28.3428 63.3409 28.6193C63.947 28.8958 64.4242 29.2765 64.7727 29.7614C65.1212 30.2424 65.303 30.7955 65.3182 31.4205H63.625ZM72.9673 36.3807V31.2727H74.6719V40H73.0014V38.4886H72.9105C72.7098 38.9545 72.3878 39.3428 71.9446 39.6534C71.5052 39.9602 70.9579 40.1136 70.3026 40.1136C69.742 40.1136 69.2457 39.9905 68.8139 39.7443C68.3859 39.4943 68.0488 39.125 67.8026 38.6364C67.5601 38.1477 67.4389 37.5436 67.4389 36.8239V31.2727H69.1378V36.6193C69.1378 37.214 69.3026 37.6875 69.6321 38.0398C69.9616 38.392 70.3897 38.5682 70.9162 38.5682C71.2344 38.5682 71.5507 38.4886 71.8651 38.3295C72.1832 38.1705 72.4465 37.9299 72.6548 37.608C72.867 37.286 72.9711 36.8769 72.9673 36.3807ZM76.9545 43.2727V31.2727H78.6136V32.6875H78.7557C78.8542 32.5057 78.9962 32.2955 79.1818 32.0568C79.3674 31.8182 79.625 31.6098 79.9545 31.4318C80.2841 31.25 80.7197 31.1591 81.2614 31.1591C81.9659 31.1591 82.5947 31.3371 83.1477 31.6932C83.7008 32.0492 84.1345 32.5625 84.4489 33.233C84.767 33.9034 84.9261 34.7102 84.9261 35.6534C84.9261 36.5966 84.7689 37.4053 84.4545 38.0795C84.1402 38.75 83.7083 39.267 83.1591 39.6307C82.6098 39.9905 81.983 40.1705 81.2784 40.1705C80.7481 40.1705 80.3144 40.0814 79.9773 39.9034C79.6439 39.7254 79.3826 39.517 79.1932 39.2784C79.0038 39.0398 78.858 38.8277 78.7557 38.642H78.6534V43.2727H76.9545ZM78.6193 35.6364C78.6193 36.25 78.7083 36.7879 78.8864 37.25C79.0644 37.7121 79.322 38.0739 79.6591 38.3352C79.9962 38.5928 80.4091 38.7216 80.8977 38.7216C81.4053 38.7216 81.8295 38.5871 82.1705 38.3182C82.5114 38.0455 82.7689 37.6761 82.9432 37.2102C83.1212 36.7443 83.2102 36.2197 83.2102 35.6364C83.2102 35.0606 83.1231 34.5436 82.9489 34.0852C82.7784 33.6269 82.5208 33.2652 82.1761 33C81.8352 32.7348 81.4091 32.6023 80.8977 32.6023C80.4053 32.6023 79.9886 32.7292 79.6477 32.983C79.3106 33.2367 79.0549 33.5909 78.8807 34.0455C78.7064 34.5 78.6193 35.0303 78.6193 35.6364ZM90.5909 40.1761C89.7311 40.1761 88.9905 39.9924 88.3693 39.625C87.7519 39.2538 87.2746 38.733 86.9375 38.0625C86.6042 37.3883 86.4375 36.5985 86.4375 35.6932C86.4375 34.7992 86.6042 34.0114 86.9375 33.3295C87.2746 32.6477 87.7443 32.1155 88.3466 31.733C88.9527 31.3504 89.661 31.1591 90.4716 31.1591C90.964 31.1591 91.4413 31.2405 91.9034 31.4034C92.3655 31.5663 92.7803 31.822 93.1477 32.1705C93.5152 32.5189 93.8049 32.9716 94.017 33.5284C94.2292 34.0814 94.3352 34.7538 94.3352 35.5455V36.1477H87.3977V34.875H92.6705C92.6705 34.428 92.5795 34.0322 92.3977 33.6875C92.2159 33.339 91.9602 33.0644 91.6307 32.8636C91.3049 32.6629 90.9223 32.5625 90.483 32.5625C90.0057 32.5625 89.589 32.6799 89.233 32.9148C88.8807 33.1458 88.608 33.4489 88.4148 33.8239C88.2254 34.1951 88.1307 34.5985 88.1307 35.0341V36.0284C88.1307 36.6117 88.233 37.108 88.4375 37.517C88.6458 37.9261 88.9356 38.2386 89.3068 38.4545C89.678 38.6667 90.1117 38.7727 90.608 38.7727C90.9299 38.7727 91.2235 38.7273 91.4886 38.6364C91.7538 38.5417 91.983 38.4015 92.1761 38.2159C92.3693 38.0303 92.517 37.8011 92.6193 37.5284L94.2273 37.8182C94.0985 38.2917 93.8674 38.7064 93.5341 39.0625C93.2045 39.4148 92.7898 39.6894 92.2898 39.8864C91.7936 40.0795 91.2273 40.1761 90.5909 40.1761ZM96.2202 40V31.2727H97.8622V32.6591H97.9531C98.1122 32.1894 98.3925 31.8201 98.794 31.5511C99.1993 31.2784 99.6577 31.142 100.169 31.142C100.275 31.142 100.4 31.1458 100.544 31.1534C100.692 31.161 100.807 31.1705 100.891 31.1818V32.8068C100.822 32.7879 100.701 32.767 100.527 32.7443C100.353 32.7178 100.179 32.7045 100.004 32.7045C99.6027 32.7045 99.2448 32.7898 98.9304 32.9602C98.6198 33.1269 98.3736 33.3598 98.1918 33.6591C98.0099 33.9545 97.919 34.2917 97.919 34.6705V40H96.2202ZM113.078 31.4205C113.018 30.8826 112.768 30.4659 112.328 30.1705C111.889 29.8712 111.336 29.7216 110.669 29.7216C110.192 29.7216 109.779 29.7973 109.43 29.9489C109.082 30.0966 108.811 30.3011 108.618 30.5625C108.429 30.8201 108.334 31.1136 108.334 31.4432C108.334 31.7197 108.398 31.9583 108.527 32.1591C108.66 32.3598 108.832 32.5284 109.044 32.6648C109.26 32.7973 109.491 32.9091 109.737 33C109.983 33.0871 110.22 33.1591 110.447 33.2159L111.584 33.5114C111.955 33.6023 112.336 33.7254 112.726 33.8807C113.116 34.036 113.478 34.2405 113.811 34.4943C114.144 34.7481 114.413 35.0625 114.618 35.4375C114.826 35.8125 114.93 36.2614 114.93 36.7841C114.93 37.4432 114.76 38.0284 114.419 38.5398C114.082 39.0511 113.591 39.4545 112.947 39.75C112.307 40.0455 111.533 40.1932 110.624 40.1932C109.752 40.1932 108.999 40.0549 108.362 39.7784C107.726 39.5019 107.228 39.1098 106.868 38.6023C106.508 38.0909 106.309 37.4848 106.271 36.7841H108.033C108.067 37.2045 108.203 37.5549 108.442 37.8352C108.684 38.1117 108.993 38.3182 109.368 38.4545C109.747 38.5871 110.161 38.6534 110.612 38.6534C111.108 38.6534 111.55 38.5758 111.936 38.4205C112.326 38.2614 112.633 38.0417 112.857 37.7614C113.08 37.4773 113.192 37.1458 113.192 36.767C113.192 36.4223 113.093 36.1402 112.896 35.9205C112.703 35.7008 112.44 35.5189 112.107 35.375C111.777 35.2311 111.404 35.1042 110.987 34.9943L109.612 34.6193C108.68 34.3655 107.942 33.9924 107.396 33.5C106.855 33.0076 106.584 32.3561 106.584 31.5455C106.584 30.875 106.766 30.2898 107.129 29.7898C107.493 29.2898 107.985 28.9015 108.607 28.625C109.228 28.3447 109.929 28.2045 110.709 28.2045C111.497 28.2045 112.192 28.3428 112.794 28.6193C113.4 28.8958 113.877 29.2765 114.226 29.7614C114.574 30.2424 114.756 30.7955 114.771 31.4205H113.078ZM119.432 40.1932C118.879 40.1932 118.379 40.0909 117.932 39.8864C117.485 39.678 117.131 39.3769 116.869 38.983C116.612 38.589 116.483 38.1061 116.483 37.5341C116.483 37.0417 116.578 36.6364 116.767 36.3182C116.956 36 117.212 35.7481 117.534 35.5625C117.856 35.3769 118.216 35.2367 118.614 35.142C119.011 35.0473 119.417 34.9754 119.83 34.9261C120.352 34.8655 120.777 34.8163 121.102 34.7784C121.428 34.7367 121.665 34.6705 121.812 34.5795C121.96 34.4886 122.034 34.3409 122.034 34.1364V34.0966C122.034 33.6004 121.894 33.2159 121.614 32.9432C121.337 32.6705 120.924 32.5341 120.375 32.5341C119.803 32.5341 119.352 32.661 119.023 32.9148C118.697 33.1648 118.472 33.4432 118.347 33.75L116.75 33.3864C116.939 32.8561 117.216 32.428 117.58 32.1023C117.947 31.7727 118.369 31.5341 118.847 31.3864C119.324 31.2348 119.826 31.1591 120.352 31.1591C120.701 31.1591 121.07 31.2008 121.46 31.2841C121.854 31.3636 122.222 31.5114 122.562 31.7273C122.907 31.9432 123.189 32.2519 123.409 32.6534C123.629 33.0511 123.739 33.5682 123.739 34.2045V40H122.08V38.8068H122.011C121.902 39.0265 121.737 39.2424 121.517 39.4545C121.297 39.6667 121.015 39.8428 120.67 39.983C120.326 40.1231 119.913 40.1932 119.432 40.1932ZM119.801 38.8295C120.271 38.8295 120.672 38.7367 121.006 38.5511C121.343 38.3655 121.598 38.1231 121.773 37.8239C121.951 37.5208 122.04 37.197 122.04 36.8523V35.7273C121.979 35.7879 121.862 35.8447 121.688 35.8977C121.517 35.947 121.322 35.9905 121.102 36.0284C120.883 36.0625 120.669 36.0947 120.46 36.125C120.252 36.1515 120.078 36.1742 119.938 36.1932C119.608 36.2348 119.307 36.3049 119.034 36.4034C118.765 36.5019 118.549 36.6439 118.386 36.8295C118.227 37.0114 118.148 37.2538 118.148 37.5568C118.148 37.9773 118.303 38.2955 118.614 38.5114C118.924 38.7235 119.32 38.8295 119.801 38.8295ZM127.7 28.3636V40H126.001V28.3636H127.7ZM133.747 40.1761C132.887 40.1761 132.147 39.9924 131.526 39.625C130.908 39.2538 130.431 38.733 130.094 38.0625C129.76 37.3883 129.594 36.5985 129.594 35.6932C129.594 34.7992 129.76 34.0114 130.094 33.3295C130.431 32.6477 130.901 32.1155 131.503 31.733C132.109 31.3504 132.817 31.1591 133.628 31.1591C134.12 31.1591 134.598 31.2405 135.06 31.4034C135.522 31.5663 135.937 31.822 136.304 32.1705C136.671 32.5189 136.961 32.9716 137.173 33.5284C137.385 34.0814 137.491 34.7538 137.491 35.5455V36.1477H130.554V34.875H135.827C135.827 34.428 135.736 34.0322 135.554 33.6875C135.372 33.339 135.116 33.0644 134.787 32.8636C134.461 32.6629 134.079 32.5625 133.639 32.5625C133.162 32.5625 132.745 32.6799 132.389 32.9148C132.037 33.1458 131.764 33.4489 131.571 33.8239C131.382 34.1951 131.287 34.5985 131.287 35.0341V36.0284C131.287 36.6117 131.389 37.108 131.594 37.517C131.802 37.9261 132.092 38.2386 132.463 38.4545C132.834 38.6667 133.268 38.7727 133.764 38.7727C134.086 38.7727 134.38 38.7273 134.645 38.6364C134.91 38.5417 135.139 38.4015 135.332 38.2159C135.526 38.0303 135.673 37.8011 135.776 37.5284L137.384 37.8182C137.255 38.2917 137.024 38.7064 136.69 39.0625C136.361 39.4148 135.946 39.6894 135.446 39.8864C134.95 40.0795 134.384 40.1761 133.747 40.1761ZM143.588 40V38.7273L147.526 34.6477C147.946 34.2045 148.293 33.8163 148.565 33.483C148.842 33.1458 149.048 32.8258 149.185 32.5227C149.321 32.2197 149.389 31.8977 149.389 31.5568C149.389 31.1705 149.298 30.8371 149.116 30.5568C148.935 30.2727 148.687 30.0549 148.372 29.9034C148.058 29.7481 147.704 29.6705 147.31 29.6705C146.893 29.6705 146.529 29.7557 146.219 29.9261C145.908 30.0966 145.67 30.3371 145.503 30.6477C145.336 30.9583 145.253 31.322 145.253 31.7386H143.577C143.577 31.0303 143.74 30.411 144.065 29.8807C144.391 29.3504 144.838 28.9394 145.406 28.6477C145.974 28.3523 146.62 28.2045 147.344 28.2045C148.075 28.2045 148.719 28.3504 149.276 28.642C149.836 28.9299 150.274 29.3239 150.588 29.8239C150.902 30.3201 151.06 30.8807 151.06 31.5057C151.06 31.9375 150.978 32.3598 150.815 32.7727C150.656 33.1856 150.378 33.6458 149.98 34.1534C149.582 34.6572 149.029 35.2689 148.321 35.9886L146.009 38.4091V38.4943H151.247V40H143.588ZM157.452 40.1932C156.554 40.1894 155.787 39.9527 155.151 39.483C154.514 39.0133 154.027 38.3295 153.69 37.4318C153.353 36.5341 153.185 35.4527 153.185 34.1875C153.185 32.9261 153.353 31.8485 153.69 30.9545C154.031 30.0606 154.52 29.3788 155.156 28.9091C155.796 28.4394 156.562 28.2045 157.452 28.2045C158.342 28.2045 159.105 28.4413 159.741 28.9148C160.378 29.3845 160.865 30.0663 161.202 30.9602C161.543 31.8504 161.713 32.9261 161.713 34.1875C161.713 35.4564 161.545 36.5398 161.207 37.4375C160.87 38.3314 160.384 39.0152 159.747 39.4886C159.111 39.9583 158.346 40.1932 157.452 40.1932ZM157.452 38.6761C158.24 38.6761 158.855 38.2917 159.298 37.5227C159.745 36.7538 159.969 35.642 159.969 34.1875C159.969 33.2216 159.866 32.4053 159.662 31.7386C159.461 31.0682 159.171 30.5606 158.793 30.2159C158.418 29.8674 157.971 29.6932 157.452 29.6932C156.668 29.6932 156.052 30.0795 155.605 30.8523C155.158 31.625 154.933 32.7367 154.929 34.1875C154.929 35.1572 155.029 35.9773 155.23 36.6477C155.435 37.3144 155.724 37.8201 156.099 38.1648C156.474 38.5057 156.925 38.6761 157.452 38.6761ZM169.803 37.8182V37.2045C169.803 36.7652 169.893 36.3636 170.075 36C170.261 35.6326 170.53 35.339 170.882 35.1193C171.238 34.8958 171.668 34.7841 172.172 34.7841C172.687 34.7841 173.119 34.8939 173.467 35.1136C173.816 35.3333 174.079 35.6269 174.257 35.9943C174.439 36.3617 174.53 36.7652 174.53 37.2045V37.8182C174.53 38.2576 174.439 38.661 174.257 39.0284C174.075 39.392 173.808 39.6856 173.456 39.9091C173.107 40.1288 172.679 40.2386 172.172 40.2386C171.661 40.2386 171.229 40.1288 170.876 39.9091C170.524 39.6856 170.257 39.392 170.075 39.0284C169.893 38.661 169.803 38.2576 169.803 37.8182ZM171.126 37.2045V37.8182C171.126 38.1439 171.204 38.4394 171.359 38.7045C171.515 38.9697 171.786 39.1023 172.172 39.1023C172.554 39.1023 172.821 38.9697 172.973 38.7045C173.125 38.4394 173.2 38.1439 173.2 37.8182V37.2045C173.2 36.8788 173.126 36.5833 172.979 36.3182C172.835 36.053 172.566 35.9205 172.172 35.9205C171.793 35.9205 171.524 36.053 171.365 36.3182C171.206 36.5833 171.126 36.8788 171.126 37.2045ZM163.95 31.1591V30.5455C163.95 30.1061 164.041 29.7027 164.223 29.3352C164.409 28.9678 164.678 28.6742 165.03 28.4545C165.386 28.2348 165.816 28.125 166.32 28.125C166.835 28.125 167.267 28.2348 167.615 28.4545C167.964 28.6742 168.227 28.9678 168.405 29.3352C168.583 29.7027 168.672 30.1061 168.672 30.5455V31.1591C168.672 31.5985 168.581 32.0019 168.399 32.3693C168.221 32.733 167.956 33.0265 167.604 33.25C167.255 33.4697 166.827 33.5795 166.32 33.5795C165.804 33.5795 165.371 33.4697 165.018 33.25C164.67 33.0265 164.405 32.733 164.223 32.3693C164.041 32.0019 163.95 31.5985 163.95 31.1591ZM165.28 30.5455V31.1591C165.28 31.4848 165.356 31.7803 165.507 32.0455C165.662 32.3106 165.933 32.4432 166.32 32.4432C166.698 32.4432 166.964 32.3106 167.115 32.0455C167.27 31.7803 167.348 31.4848 167.348 31.1591V30.5455C167.348 30.2197 167.274 29.9242 167.126 29.6591C166.979 29.3939 166.71 29.2614 166.32 29.2614C165.941 29.2614 165.672 29.3939 165.513 29.6591C165.357 29.9242 165.28 30.2197 165.28 30.5455ZM164.49 40L172.49 28.3636H173.848L165.848 40H164.49Z" fill="white"/>
</svg>
