<svg width="1279" height="262" viewBox="0 0 1279 262" fill="none" xmlns="http://www.w3.org/2000/svg">
<path d="M0.499023 76.392H25.064L81.953 210.73L141.17 76.392H145.499L205.115 210.73L263.1 76.392H287.933L207.308 261.404H202.878L143.534 128.937L84.223 261.404H79.776L0.499023 76.392ZM327.676 0.209956C330.27 0.170249 332.844 0.66287 335.239 1.65737C337.635 2.65188 339.801 4.12715 341.604 5.99197C343.467 7.79899 344.941 9.96834 345.934 12.3665C346.927 14.7646 347.419 17.3406 347.379 19.936C347.407 22.5045 346.91 25.0515 345.916 27.4204C344.923 29.7893 343.456 31.9297 341.604 33.71C339.801 35.5748 337.635 37.05 335.239 38.0446C332.844 39.0391 330.27 39.5317 327.676 39.492C325.11 39.5193 322.566 39.0203 320.2 38.0258C317.835 37.0313 315.699 35.5625 313.923 33.71C312.071 31.9297 310.604 29.7893 309.611 27.4204C308.617 25.0515 308.12 22.5045 308.148 19.936C308.108 17.3406 308.6 14.7646 309.593 12.3665C310.586 9.96834 312.06 7.79899 313.923 5.99197C315.699 4.13945 317.835 2.67059 320.2 1.67611C322.566 0.681633 325.11 0.182636 327.676 0.209956ZM315.823 76.392H339.705V261.404H315.823V76.392ZM392.838 76.392H416.72V109.551C426.273 96.8543 436.849 87.36 448.449 81.068C460.071 74.7702 473.101 71.5229 486.319 71.63C500.193 71.63 512.503 75.1443 523.25 82.173C533.857 89.0328 542.151 98.9297 547.05 110.573C552.167 122.476 554.726 141.012 554.726 166.179V261.406H530.837V173.151C530.837 151.838 529.951 137.611 528.18 130.469C525.413 118.226 520.106 109.015 512.258 102.836C504.41 96.6573 494.174 93.568 481.549 93.568C467.103 93.568 454.164 98.3293 442.733 107.852C431.6 116.912 423.676 129.313 420.133 143.222C417.858 152.405 416.721 169.183 416.721 193.556V261.405H392.835L392.838 76.392ZM617.661 0.209956C620.255 0.170249 622.829 0.66287 625.224 1.65737C627.62 2.65188 629.786 4.12715 631.589 5.99197C633.452 7.79899 634.926 9.96834 635.919 12.3665C636.912 14.7646 637.404 17.3406 637.364 19.936C637.392 22.5045 636.895 25.0515 635.901 27.4204C634.908 29.7893 633.441 31.9297 631.589 33.71C629.786 35.5748 627.62 37.05 625.224 38.0446C622.829 39.0391 620.255 39.5317 617.661 39.492C615.095 39.5198 612.55 39.0211 610.183 38.0266C607.817 37.0321 605.68 35.563 603.904 33.71C602.052 31.9297 600.585 29.7893 599.592 27.4204C598.598 25.0515 598.101 22.5045 598.129 19.936C598.089 17.3406 598.581 14.7646 599.574 12.3665C600.567 9.96834 602.041 7.79899 603.904 5.99197C605.68 4.13896 607.817 2.66981 610.183 1.67532C612.55 0.680823 615.095 0.182087 617.661 0.209956ZM605.805 76.392H629.687V261.404H605.806L605.805 76.392Z" fill="black"/>
<path d="M1014.67 261.337H963.899V152.968C963.899 130.858 961.672 114.673 957.281 104.868C952.89 95.063 945.581 86.999 935.538 80.904C925.495 74.809 913.7 71.727 900.469 71.727C888.03 71.5565 875.749 74.5181 864.755 80.3391C853.761 86.16 844.408 94.6533 837.558 105.037C831.852 94.209 824.219 85.859 814.869 80.221C805.31 74.5264 794.364 71.5848 783.238 71.721C772.219 71.6196 761.3 73.8202 751.18 78.182C741.009 82.7693 731.906 89.4266 724.452 97.729V76.484H678.28V0.336978H1037.89C1034.01 0.312376 1030.17 1.06686 1026.59 2.55567C1023.01 4.04447 1019.76 6.23727 1017.05 9.00398C1014.24 11.7066 1012.01 14.9562 1010.51 18.5519C1009.01 22.1477 1008.26 26.0133 1008.31 29.91C1008.24 33.9301 1008.99 37.9222 1010.51 41.6462C1012.02 45.3701 1014.28 48.7488 1017.13 51.579C1019.88 54.4495 1023.2 56.7232 1026.87 58.2588C1030.54 59.7943 1034.48 60.5589 1038.46 60.505C1042.35 60.5456 1046.22 59.79 1049.81 58.2847C1053.4 56.7794 1056.65 54.556 1059.35 51.751C1062.17 49.0013 1064.4 45.707 1065.9 42.0687C1067.4 38.4305 1068.14 34.5246 1068.09 30.589C1068.15 26.6077 1067.4 22.6556 1065.88 18.9739C1064.37 15.2922 1062.11 11.958 1059.27 9.17498C1056.56 6.36632 1053.3 4.13539 1049.71 2.61651C1046.11 1.09764 1042.24 0.322232 1038.34 0.336978H1207.5C1216.83 0.329482 1226.06 2.16084 1234.68 5.72626C1243.3 9.29169 1251.13 14.5212 1257.72 21.1157C1264.32 27.7101 1269.55 35.5401 1273.11 44.1576C1276.68 52.7751 1278.51 62.011 1278.5 71.337V76.483H1226.73L1189.97 126.883L1153.04 76.483H1098.58L1162.82 164.127L1091.94 261.337H1061.56V76.484H1014.67V261.337ZM916.669 261.337H844.694V177.951C844.694 160.351 846.254 147.397 849.331 139.451C852.086 131.923 857.02 125.386 863.503 120.672C869.784 116.174 877.334 113.793 885.059 113.872C895.543 113.872 903.519 117.618 908.765 125.005C914.011 132.392 916.665 146.719 916.665 167.58V261.337H916.669ZM797.458 261.337H724.458V179.143C724.458 161.443 726.05 148.287 729.189 140.049C732.328 131.811 737.134 125.324 743.48 120.757C749.648 116.246 757.101 113.833 764.743 113.874C771.717 113.874 777.743 115.705 782.651 119.315C787.559 122.925 791.298 128.492 793.76 135.884C796.222 143.276 797.46 155.37 797.46 171.832V261.337H797.458ZM1234.06 261.337H1145.48L1189.66 200.75L1234.06 261.337ZM1278.5 247.673L1216.82 163.509L1278.5 78.899V247.669L1278.5 247.673Z" fill="black"/>
</svg>
