<svg width="1278" height="262" viewBox="0 0 1278 262" fill="none" xmlns="http://www.w3.org/2000/svg">
<path d="M0 76.1842H24.565L81.454 210.522L140.671 76.1842H145L204.616 210.522L262.601 76.1842H287.434L206.809 261.196H202.379L143.035 128.729L83.724 261.196H79.277L0 76.1842ZM327.177 0.00222295C329.771 -0.0374843 332.345 0.455137 334.74 1.44964C337.136 2.44415 339.302 3.91941 341.105 5.78424C342.968 7.59125 344.442 9.76061 345.435 12.1587C346.428 14.5568 346.92 17.1329 346.88 19.7282C346.908 22.2967 346.411 24.8438 345.417 27.2127C344.424 29.5815 342.957 31.722 341.105 33.5022C339.302 35.367 337.136 36.8423 334.74 37.8368C332.345 38.8313 329.771 39.3239 327.177 39.2842C324.611 39.3116 322.067 38.8126 319.701 37.8181C317.336 36.8236 315.2 35.3547 313.424 33.5022C311.572 31.722 310.105 29.5815 309.112 27.2127C308.118 24.8438 307.621 22.2967 307.649 19.7282C307.609 17.1329 308.101 14.5568 309.094 12.1587C310.087 9.76061 311.561 7.59125 313.424 5.78424C315.2 3.93172 317.336 2.46286 319.701 1.46838C322.067 0.4739 324.611 -0.0250977 327.177 0.00222295ZM315.324 76.1842H339.206V261.196H315.324V76.1842ZM392.339 76.1842H416.221V109.343C425.774 96.6466 436.35 87.1522 447.95 80.8602C459.572 74.5624 472.602 71.3152 485.82 71.4222C499.694 71.4222 512.004 74.9366 522.751 81.9652C533.358 88.8251 541.652 98.722 546.551 110.365C551.668 122.269 554.227 140.804 554.227 165.971V261.198H530.338V172.943C530.338 151.631 529.452 137.403 527.681 130.261C524.914 118.018 519.607 108.807 511.759 102.628C503.911 96.4496 493.675 93.3602 481.05 93.3602C466.604 93.3602 453.665 98.1216 442.234 107.644C431.101 116.704 423.177 129.105 419.634 143.014C417.359 152.197 416.222 168.975 416.222 193.348V261.197H392.336L392.339 76.1842ZM617.162 0.00222295C619.756 -0.0374843 622.33 0.455137 624.725 1.44964C627.121 2.44415 629.287 3.91941 631.09 5.78424C632.953 7.59125 634.427 9.76061 635.42 12.1587C636.413 14.5568 636.905 17.1329 636.865 19.7282C636.893 22.2967 636.396 24.8438 635.402 27.2127C634.409 29.5815 632.942 31.722 631.09 33.5022C629.287 35.367 627.121 36.8423 624.725 37.8368C622.33 38.8313 619.756 39.3239 617.162 39.2842C614.596 39.3121 612.051 38.8134 609.684 37.8189C607.318 36.8244 605.181 35.3552 603.405 33.5022C601.553 31.722 600.086 29.5815 599.093 27.2127C598.099 24.8438 597.602 22.2967 597.63 19.7282C597.59 17.1329 598.082 14.5568 599.075 12.1587C600.068 9.76061 601.542 7.59125 603.405 5.78424C605.181 3.93122 607.318 2.46208 609.684 1.46759C612.051 0.47309 614.596 -0.0256462 617.162 0.00222295ZM605.306 76.1842H629.188V261.196H605.307L605.306 76.1842Z" fill="white"/>
<path d="M1014.17 261.129H963.4V152.76C963.4 130.65 961.173 114.465 956.782 104.66C952.391 94.8552 945.082 86.7912 935.039 80.6962C924.996 74.6012 913.203 71.5192 899.97 71.5192C887.531 71.3486 875.25 74.3102 864.256 80.1312C853.262 85.9522 843.909 94.4455 837.059 104.829C831.353 94.0012 823.72 85.6522 814.37 80.0132C804.811 74.3188 793.865 71.3771 782.739 71.5132C771.72 71.4114 760.801 73.6121 750.681 77.9742C740.51 82.5615 731.407 89.2188 723.953 97.5212V76.2762H677.781V0.129228H1037.38C1033.51 0.106008 1029.66 0.86117 1026.09 2.34994C1022.51 3.83872 1019.26 6.0308 1016.55 8.79623C1013.74 11.4986 1011.52 14.7481 1010.01 18.3439C1008.51 21.9397 1007.76 25.8055 1007.81 29.7022C1007.75 33.7223 1008.49 37.7144 1010.01 41.4383C1011.53 45.1622 1013.78 48.541 1016.64 51.3712C1019.39 54.2418 1022.7 56.5155 1026.37 58.051C1030.04 59.5866 1033.99 60.3511 1037.96 60.2972C1041.86 60.3378 1045.72 59.5823 1049.31 58.077C1052.91 56.5716 1056.15 54.3483 1058.86 51.5432C1061.67 48.7935 1063.9 45.4991 1065.4 41.8609C1066.9 38.2227 1067.65 34.3168 1067.59 30.3812C1067.65 26.3999 1066.9 22.4478 1065.39 18.7661C1063.87 15.0843 1061.62 11.7502 1058.77 8.96723C1056.06 6.15961 1052.81 3.92929 1049.22 2.41045C1045.62 0.89161 1041.76 0.11564 1037.85 0.129228H1207C1216.33 0.121732 1225.56 1.95309 1234.18 5.51851C1242.8 9.08394 1250.63 14.3135 1257.22 20.9079C1263.82 27.5024 1269.05 35.3323 1272.61 43.9498C1276.18 52.5673 1278.01 61.8033 1278 71.1292V76.2752H1226.23L1189.47 126.675L1152.54 76.2752H1098.08L1162.32 163.919L1091.44 261.129H1061.06V76.2762H1014.17V261.129ZM916.17 261.129H844.195V177.743C844.195 160.143 845.755 147.189 848.832 139.243C851.587 131.716 856.521 125.178 863.004 120.464C869.285 115.967 876.835 113.585 884.56 113.664C895.044 113.664 903.02 117.41 908.266 124.797C913.512 132.184 916.166 146.511 916.166 167.372V261.129H916.17ZM723.959 261.129V178.935C723.959 161.235 725.551 148.078 728.69 139.841C731.829 131.604 736.635 125.116 742.981 120.549C749.149 116.038 756.602 113.626 764.244 113.666C771.218 113.666 777.244 115.496 782.152 119.107C787.06 122.718 790.799 128.284 793.261 135.676C795.723 143.068 796.961 155.161 796.961 171.624V261.129H723.959ZM1233.56 261.129H1144.98L1189.16 200.542L1233.56 261.129ZM1278 247.465L1216.32 163.301L1278 78.6912V247.461L1278 247.465Z" fill="white"/>
</svg>
